<mxfile host="65bd71144e">
    <diagram id="FqYepMLJk8PsfbSdjFZq" name="Page-1">
        <mxGraphModel dx="1039" dy="776" grid="1" gridSize="10" guides="1" tooltips="1" connect="1" arrows="1" fold="1" page="1" pageScale="1" pageWidth="850" pageHeight="1100" background="#ffffff" math="0" shadow="0">
            <root>
                <mxCell id="0"/>
                <mxCell id="1" parent="0"/>
                <mxCell id="2" value="&lt;b&gt;&lt;span style=&quot;font-family: Arial, sans-serif;&quot; lang=&quot;IN&quot;&gt;&lt;font style=&quot;font-size: 18px;&quot;&gt;SISTEM &lt;i&gt;BOOKING &lt;/i&gt;HOTEL TERPUSAT BERBASIS&lt;i&gt; SOFTWARE AS A SERVICE&lt;/i&gt;&lt;/font&gt;&lt;/span&gt;&lt;/b&gt;" style="shape=ellipse;html=1;dashed=0;whiteSpace=wrap;aspect=fixed;perimeter=ellipsePerimeter;" parent="1" vertex="1">
                    <mxGeometry x="295" y="210" width="260" height="260" as="geometry"/>
                </mxCell>
                <mxCell id="3" value="Admin" style="html=1;dashed=0;whiteSpace=wrap;points=[[0,0,0,0,0],[0,0.09,0,0,0],[0,0.18,0,0,0],[0,0.25,0,0,0],[0,0.27,0,0,0],[0,0.36,0,0,0],[0,0.45,0,0,0],[0,0.5,0,0,0],[0,0.55,0,0,0],[0,0.64,0,0,0],[0,0.73,0,0,0],[0,0.75,0,0,0],[0,0.82,0,0,0],[0,0.91,0,0,0],[0,1,0,0,0],[0.09,0,0,0,0],[0.09,1,0,0,0],[0.18,0,0,0,0],[0.18,1,0,0,0],[0.25,0,0,0,0],[0.25,1,0,0,0],[0.27,0,0,0,0],[0.27,1,0,0,0],[0.36,0,0,0,0],[0.36,1,0,0,0],[0.45,0,0,0,0],[0.45,1,0,0,0],[0.5,0,0,0,0],[0.5,1,0,0,0],[0.55,0,0,0,0],[0.55,1,0,0,0],[0.64,0,0,0,0],[0.64,1,0,0,0],[0.73,0,0,0,0],[0.73,1,0,0,0],[0.75,0,0,0,0],[0.75,1,0,0,0],[0.82,0,0,0,0],[0.82,1,0,0,0],[0.91,0,0,0,0],[0.91,1,0,0,0],[1,0,0,0,0],[1,0.09,0,0,0],[1,0.18,0,0,0],[1,0.25,0,0,0],[1,0.27,0,0,0],[1,0.36,0,0,0],[1,0.45,0,0,0],[1,0.5,0,0,0],[1,0.55,0,0,0],[1,0.64,0,0,0],[1,0.73,0,0,0],[1,0.75,0,0,0],[1,0.82,0,0,0],[1,0.91,0,0,0],[1,1,0,0,0]];" parent="1" vertex="1">
                    <mxGeometry x="70" y="160" width="100" height="50" as="geometry"/>
                </mxCell>
                <mxCell id="4" value="Hotel&lt;div&gt;&lt;i&gt;Organizer&lt;/i&gt;&lt;/div&gt;" style="html=1;dashed=0;whiteSpace=wrap;" parent="1" vertex="1">
                    <mxGeometry x="690" y="160" width="100" height="50" as="geometry"/>
                </mxCell>
                <mxCell id="5" value="Pelanggan" style="html=1;dashed=0;whiteSpace=wrap;" parent="1" vertex="1">
                    <mxGeometry x="690" y="470" width="100" height="50" as="geometry"/>
                </mxCell>
                <mxCell id="6" value="Payment&lt;div&gt;Gateway&lt;/div&gt;" style="html=1;dashed=0;whiteSpace=wrap;" parent="1" vertex="1">
                    <mxGeometry x="70" y="470" width="100" height="50" as="geometry"/>
                </mxCell>
                <mxCell id="8" style="html=1;jumpStyle=arc;rounded=0;curved=0;entryX=0.5;entryY=0;entryDx=0;entryDy=0;exitX=0;exitY=0.5;exitDx=0;exitDy=0;" parent="1" source="2" target="6" edge="1">
                    <mxGeometry relative="1" as="geometry">
                        <mxPoint x="320" y="520" as="sourcePoint"/>
                        <mxPoint x="290" y="440" as="targetPoint"/>
                        <Array as="points">
                            <mxPoint x="120" y="340"/>
                        </Array>
                    </mxGeometry>
                </mxCell>
                <mxCell id="107" value="Permintaan transaksi&lt;div&gt;(detail pembayaran)&lt;/div&gt;" style="edgeLabel;html=1;align=center;verticalAlign=middle;resizable=0;points=[];" parent="8" vertex="1" connectable="0">
                    <mxGeometry x="-0.1691" relative="1" as="geometry">
                        <mxPoint x="40" as="offset"/>
                    </mxGeometry>
                </mxCell>
                <mxCell id="9" style="html=1;jumpStyle=arc;rounded=0;curved=0;exitX=1;exitY=0.5;exitDx=0;exitDy=0;entryX=0.183;entryY=0.113;entryDx=0;entryDy=0;entryPerimeter=0;" parent="1" source="3" target="2" edge="1">
                    <mxGeometry relative="1" as="geometry">
                        <mxPoint x="270" y="190" as="sourcePoint"/>
                        <mxPoint x="370" y="110" as="targetPoint"/>
                        <Array as="points">
                            <mxPoint x="343" y="185"/>
                        </Array>
                    </mxGeometry>
                </mxCell>
                <mxCell id="10" value="Data login" style="edgeLabel;html=1;align=center;verticalAlign=middle;resizable=0;points=[];" parent="9" vertex="1" connectable="0">
                    <mxGeometry x="-0.2256" relative="1" as="geometry">
                        <mxPoint x="-11" as="offset"/>
                    </mxGeometry>
                </mxCell>
                <mxCell id="11" style="html=1;jumpStyle=arc;rounded=0;curved=0;entryX=1.011;entryY=0.787;entryDx=0;entryDy=0;entryPerimeter=0;exitX=0;exitY=0;exitDx=0;exitDy=0;" parent="1" source="2" target="3" edge="1">
                    <mxGeometry relative="1" as="geometry">
                        <mxPoint x="110" y="410" as="sourcePoint"/>
                        <mxPoint x="210" y="330" as="targetPoint"/>
                        <Array as="points">
                            <mxPoint x="333" y="199"/>
                        </Array>
                    </mxGeometry>
                </mxCell>
                <mxCell id="12" value="Konfirmasi login" style="edgeLabel;html=1;align=center;verticalAlign=middle;resizable=0;points=[];" parent="11" vertex="1" connectable="0">
                    <mxGeometry x="0.0281" y="-1" relative="1" as="geometry">
                        <mxPoint x="-13" as="offset"/>
                    </mxGeometry>
                </mxCell>
                <mxCell id="14" style="html=1;jumpStyle=arc;rounded=0;curved=0;entryX=0;entryY=0.75;entryDx=0;entryDy=0;exitX=0.904;exitY=0.192;exitDx=0;exitDy=0;exitPerimeter=0;" parent="1" edge="1">
                    <mxGeometry relative="1" as="geometry">
                        <mxPoint x="530.04" y="262.9200000000001" as="sourcePoint"/>
                        <mxPoint x="690" y="200.5" as="targetPoint"/>
                        <Array as="points">
                            <mxPoint x="530" y="201"/>
                        </Array>
                    </mxGeometry>
                </mxCell>
                <mxCell id="27" value="Konfirmasi login" style="edgeLabel;html=1;align=center;verticalAlign=middle;resizable=0;points=[];" parent="14" vertex="1" connectable="0">
                    <mxGeometry x="-0.1316" y="1" relative="1" as="geometry">
                        <mxPoint x="19" as="offset"/>
                    </mxGeometry>
                </mxCell>
                <mxCell id="15" style="html=1;jumpStyle=arc;rounded=0;exitX=0.91;exitY=0;exitDx=0;exitDy=0;exitPerimeter=0;entryX=0.345;entryY=0.024;entryDx=0;entryDy=0;entryPerimeter=0;edgeStyle=orthogonalEdgeStyle;" parent="1" source="3" target="2" edge="1">
                    <mxGeometry relative="1" as="geometry">
                        <mxPoint x="161" y="156.62" as="sourcePoint"/>
                        <mxPoint x="384.18000000000006" y="210" as="targetPoint"/>
                        <Array as="points">
                            <mxPoint x="161" y="147"/>
                            <mxPoint x="385" y="147"/>
                        </Array>
                    </mxGeometry>
                </mxCell>
                <mxCell id="26" value="Data fasilitas" style="edgeLabel;html=1;align=center;verticalAlign=middle;resizable=0;points=[];" parent="15" vertex="1" connectable="0">
                    <mxGeometry x="-0.2951" y="1" relative="1" as="geometry">
                        <mxPoint x="-2" as="offset"/>
                    </mxGeometry>
                </mxCell>
                <mxCell id="16" style="html=1;jumpStyle=arc;rounded=0;curved=0;entryX=0.696;entryY=1.016;entryDx=0;entryDy=0;entryPerimeter=0;exitX=0.041;exitY=0.295;exitDx=0;exitDy=0;exitPerimeter=0;" parent="1" edge="1">
                    <mxGeometry relative="1" as="geometry">
                        <mxPoint x="305.65999999999997" y="284.70000000000005" as="sourcePoint"/>
                        <mxPoint x="139.60000000000002" y="211.79999999999995" as="targetPoint"/>
                        <Array as="points">
                            <mxPoint x="140" y="285"/>
                        </Array>
                    </mxGeometry>
                </mxCell>
                <mxCell id="25" value="Info data fasilitas" style="edgeLabel;html=1;align=center;verticalAlign=middle;resizable=0;points=[];" parent="16" vertex="1" connectable="0">
                    <mxGeometry x="-0.1463" relative="1" as="geometry">
                        <mxPoint x="14" as="offset"/>
                    </mxGeometry>
                </mxCell>
                <mxCell id="17" style="html=1;jumpStyle=arc;rounded=0;curved=0;exitX=1;exitY=0;exitDx=0;exitDy=0;exitPerimeter=0;entryX=0.288;entryY=0.038;entryDx=0;entryDy=0;entryPerimeter=0;" parent="1" source="3" target="2" edge="1">
                    <mxGeometry relative="1" as="geometry">
                        <mxPoint x="180" y="160" as="sourcePoint"/>
                        <mxPoint x="370" y="160" as="targetPoint"/>
                        <Array as="points">
                            <mxPoint x="200" y="160"/>
                            <mxPoint x="370" y="160"/>
                        </Array>
                    </mxGeometry>
                </mxCell>
                <mxCell id="24" value="Data hotel" style="edgeLabel;html=1;align=center;verticalAlign=middle;resizable=0;points=[];" parent="17" vertex="1" connectable="0">
                    <mxGeometry x="-0.4515" y="1" relative="1" as="geometry">
                        <mxPoint x="5" as="offset"/>
                    </mxGeometry>
                </mxCell>
                <mxCell id="18" style="html=1;jumpStyle=arc;rounded=0;curved=0;entryX=0.808;entryY=1.004;entryDx=0;entryDy=0;entryPerimeter=0;exitX=0.06;exitY=0.246;exitDx=0;exitDy=0;exitPerimeter=0;" parent="1" target="3" edge="1">
                    <mxGeometry relative="1" as="geometry">
                        <mxPoint x="311.5999999999999" y="273.96000000000004" as="sourcePoint"/>
                        <mxPoint x="153" y="210" as="targetPoint"/>
                        <Array as="points">
                            <mxPoint x="151" y="274"/>
                        </Array>
                    </mxGeometry>
                </mxCell>
                <mxCell id="23" value="Info data hotel" style="edgeLabel;html=1;align=center;verticalAlign=middle;resizable=0;points=[];" parent="18" vertex="1" connectable="0">
                    <mxGeometry x="-0.098" y="-1" relative="1" as="geometry">
                        <mxPoint as="offset"/>
                    </mxGeometry>
                </mxCell>
                <mxCell id="19" style="html=1;jumpStyle=arc;rounded=0;curved=0;entryX=0.91;entryY=1;entryDx=0;entryDy=0;entryPerimeter=0;exitX=0.096;exitY=0.198;exitDx=0;exitDy=0;exitPerimeter=0;" parent="1" source="2" target="3" edge="1">
                    <mxGeometry relative="1" as="geometry">
                        <mxPoint x="150" y="330" as="sourcePoint"/>
                        <mxPoint x="250" y="250" as="targetPoint"/>
                        <Array as="points">
                            <mxPoint x="161" y="261"/>
                        </Array>
                    </mxGeometry>
                </mxCell>
                <mxCell id="22" value="Info data user" style="edgeLabel;html=1;align=center;verticalAlign=middle;resizable=0;points=[];" parent="19" vertex="1" connectable="0">
                    <mxGeometry x="-0.0347" relative="1" as="geometry">
                        <mxPoint x="-9" as="offset"/>
                    </mxGeometry>
                </mxCell>
                <mxCell id="20" style="html=1;jumpStyle=arc;rounded=0;curved=0;exitX=1;exitY=0.27;exitDx=0;exitDy=0;exitPerimeter=0;flowAnimation=0;shadow=0;entryX=0.236;entryY=0.073;entryDx=0;entryDy=0;entryPerimeter=0;" parent="1" source="3" target="2" edge="1">
                    <mxGeometry relative="1" as="geometry">
                        <mxPoint x="320" y="180" as="sourcePoint"/>
                        <mxPoint x="360" y="170" as="targetPoint"/>
                        <Array as="points">
                            <mxPoint x="356" y="174"/>
                        </Array>
                    </mxGeometry>
                </mxCell>
                <mxCell id="21" value="Data user" style="edgeLabel;html=1;align=center;verticalAlign=middle;resizable=0;points=[];" parent="20" vertex="1" connectable="0">
                    <mxGeometry x="-0.2989" y="2" relative="1" as="geometry">
                        <mxPoint x="-9" as="offset"/>
                    </mxGeometry>
                </mxCell>
                <mxCell id="28" style="html=1;jumpStyle=arc;rounded=0;curved=0;entryX=0.827;entryY=0.115;entryDx=0;entryDy=0;entryPerimeter=0;exitX=0;exitY=0.5;exitDx=0;exitDy=0;" parent="1" source="4" target="2" edge="1">
                    <mxGeometry relative="1" as="geometry">
                        <mxPoint x="600" y="320" as="sourcePoint"/>
                        <mxPoint x="700" y="240" as="targetPoint"/>
                        <Array as="points">
                            <mxPoint x="510" y="185"/>
                        </Array>
                    </mxGeometry>
                </mxCell>
                <mxCell id="29" value="Data login" style="edgeLabel;html=1;align=center;verticalAlign=middle;resizable=0;points=[];" parent="28" vertex="1" connectable="0">
                    <mxGeometry x="-0.1316" y="1" relative="1" as="geometry">
                        <mxPoint x="-19" as="offset"/>
                    </mxGeometry>
                </mxCell>
                <mxCell id="32" style="html=1;jumpStyle=arc;rounded=0;curved=0;exitX=0.64;exitY=0;exitDx=0;exitDy=0;exitPerimeter=0;" parent="1" source="3" edge="1">
                    <mxGeometry relative="1" as="geometry">
                        <mxPoint x="400" y="150" as="sourcePoint"/>
                        <mxPoint x="410" y="209" as="targetPoint"/>
                        <Array as="points">
                            <mxPoint x="134" y="120"/>
                            <mxPoint x="410" y="120"/>
                        </Array>
                    </mxGeometry>
                </mxCell>
                <mxCell id="33" value="Data kebijakan" style="edgeLabel;html=1;align=center;verticalAlign=middle;resizable=0;points=[];" parent="32" vertex="1" connectable="0">
                    <mxGeometry x="-0.1316" y="1" relative="1" as="geometry">
                        <mxPoint x="-10" as="offset"/>
                    </mxGeometry>
                </mxCell>
                <mxCell id="34" style="html=1;jumpStyle=arc;rounded=0;curved=0;entryX=0.5;entryY=1;entryDx=0;entryDy=0;entryPerimeter=0;exitX=0.014;exitY=0.382;exitDx=0;exitDy=0;exitPerimeter=0;" parent="1" source="2" target="3" edge="1">
                    <mxGeometry relative="1" as="geometry">
                        <mxPoint x="120" y="420" as="sourcePoint"/>
                        <mxPoint x="220" y="340" as="targetPoint"/>
                        <Array as="points">
                            <mxPoint x="120" y="310"/>
                        </Array>
                    </mxGeometry>
                </mxCell>
                <mxCell id="35" value="Info data kebijakan" style="edgeLabel;html=1;align=center;verticalAlign=middle;resizable=0;points=[];" parent="34" vertex="1" connectable="0">
                    <mxGeometry x="-0.1316" y="1" relative="1" as="geometry">
                        <mxPoint x="45" as="offset"/>
                    </mxGeometry>
                </mxCell>
                <mxCell id="36" style="html=1;jumpStyle=arc;rounded=0;curved=0;exitX=0.023;exitY=0.326;exitDx=0;exitDy=0;exitPerimeter=0;" parent="1" edge="1">
                    <mxGeometry relative="1" as="geometry">
                        <mxPoint x="300.98" y="295.76" as="sourcePoint"/>
                        <mxPoint x="130" y="211" as="targetPoint"/>
                        <Array as="points">
                            <mxPoint x="130" y="297"/>
                        </Array>
                    </mxGeometry>
                </mxCell>
                <mxCell id="40" value="Info data tempat tidur" style="edgeLabel;html=1;align=center;verticalAlign=middle;resizable=0;points=[];" parent="36" vertex="1" connectable="0">
                    <mxGeometry x="-0.0935" relative="1" as="geometry">
                        <mxPoint x="44" as="offset"/>
                    </mxGeometry>
                </mxCell>
                <mxCell id="38" style="html=1;jumpStyle=arc;rounded=0;exitX=0.82;exitY=0;exitDx=0;exitDy=0;exitPerimeter=0;entryX=0.404;entryY=0;entryDx=0;entryDy=0;entryPerimeter=0;edgeStyle=orthogonalEdgeStyle;" parent="1" source="3" edge="1">
                    <mxGeometry relative="1" as="geometry">
                        <mxPoint x="149" y="163" as="sourcePoint"/>
                        <mxPoint x="397.0400000000001" y="213" as="targetPoint"/>
                        <Array as="points">
                            <mxPoint x="149" y="160"/>
                            <mxPoint x="149" y="133"/>
                            <mxPoint x="397" y="133"/>
                        </Array>
                    </mxGeometry>
                </mxCell>
                <mxCell id="39" value="Data tempat tidur" style="edgeLabel;html=1;align=center;verticalAlign=middle;resizable=0;points=[];" parent="38" vertex="1" connectable="0">
                    <mxGeometry x="-0.1316" y="1" relative="1" as="geometry">
                        <mxPoint x="-10" as="offset"/>
                    </mxGeometry>
                </mxCell>
                <mxCell id="41" style="html=1;jumpStyle=arc;rounded=0;curved=0;entryX=0.56;entryY=0.002;entryDx=0;entryDy=0;entryPerimeter=0;exitX=0.309;exitY=0;exitDx=0;exitDy=0;exitPerimeter=0;" parent="1" edge="1">
                    <mxGeometry relative="1" as="geometry">
                        <mxPoint x="720.9" y="160" as="sourcePoint"/>
                        <mxPoint x="441.5999999999999" y="210.51999999999998" as="targetPoint"/>
                        <Array as="points">
                            <mxPoint x="721" y="112"/>
                            <mxPoint x="441" y="112"/>
                        </Array>
                    </mxGeometry>
                </mxCell>
                <mxCell id="65" value="Data Pengaturan" style="edgeLabel;html=1;align=center;verticalAlign=middle;resizable=0;points=[];" parent="41" vertex="1" connectable="0">
                    <mxGeometry x="0.0839" relative="1" as="geometry">
                        <mxPoint x="48" as="offset"/>
                    </mxGeometry>
                </mxCell>
                <mxCell id="42" style="html=1;jumpStyle=arc;rounded=0;curved=0;exitX=1.001;exitY=0.466;exitDx=0;exitDy=0;exitPerimeter=0;entryX=0.5;entryY=1;entryDx=0;entryDy=0;" parent="1" target="4" edge="1">
                    <mxGeometry relative="1" as="geometry">
                        <mxPoint x="555.26" y="335.1600000000001" as="sourcePoint"/>
                        <mxPoint x="740" y="214" as="targetPoint"/>
                        <Array as="points">
                            <mxPoint x="740" y="334"/>
                        </Array>
                    </mxGeometry>
                </mxCell>
                <mxCell id="64" value="Info data pengaturan" style="edgeLabel;html=1;align=center;verticalAlign=middle;resizable=0;points=[];" parent="42" vertex="1" connectable="0">
                    <mxGeometry x="-0.5622" y="-1" relative="1" as="geometry">
                        <mxPoint x="2" as="offset"/>
                    </mxGeometry>
                </mxCell>
                <mxCell id="43" style="html=1;jumpStyle=arc;rounded=0;curved=0;exitX=0.999;exitY=0.438;exitDx=0;exitDy=0;exitPerimeter=0;entryX=0.4;entryY=1.009;entryDx=0;entryDy=0;entryPerimeter=0;" parent="1" target="4" edge="1">
                    <mxGeometry relative="1" as="geometry">
                        <mxPoint x="554.7399999999999" y="322.8800000000001" as="sourcePoint"/>
                        <mxPoint x="730" y="212.20000000000005" as="targetPoint"/>
                        <Array as="points">
                            <mxPoint x="730" y="322"/>
                        </Array>
                    </mxGeometry>
                </mxCell>
                <mxCell id="63" value="Info data &lt;i&gt;allotment&lt;/i&gt;" style="edgeLabel;html=1;align=center;verticalAlign=middle;resizable=0;points=[];" parent="43" vertex="1" connectable="0">
                    <mxGeometry x="-0.6742" relative="1" as="geometry">
                        <mxPoint x="17" as="offset"/>
                    </mxGeometry>
                </mxCell>
                <mxCell id="44" style="html=1;jumpStyle=arc;rounded=0;curved=0;entryX=0.599;entryY=0.011;entryDx=0;entryDy=0;entryPerimeter=0;exitX=0.25;exitY=0;exitDx=0;exitDy=0;" parent="1" edge="1">
                    <mxGeometry relative="1" as="geometry">
                        <mxPoint x="715" y="160" as="sourcePoint"/>
                        <mxPoint x="450.7400000000001" y="212.86000000000013" as="targetPoint"/>
                        <Array as="points">
                            <mxPoint x="715" y="125"/>
                            <mxPoint x="450" y="125"/>
                        </Array>
                    </mxGeometry>
                </mxCell>
                <mxCell id="62" value="Data &lt;i&gt;allotment&lt;/i&gt;" style="edgeLabel;html=1;align=center;verticalAlign=middle;resizable=0;points=[];" parent="44" vertex="1" connectable="0">
                    <mxGeometry x="-0.5116" y="-1" relative="1" as="geometry">
                        <mxPoint x="-75" as="offset"/>
                    </mxGeometry>
                </mxCell>
                <mxCell id="45" style="html=1;jumpStyle=arc;rounded=0;curved=0;exitX=0.992;exitY=0.389;exitDx=0;exitDy=0;exitPerimeter=0;entryX=0.3;entryY=1;entryDx=0;entryDy=0;entryPerimeter=0;" parent="1" source="2" target="4" edge="1">
                    <mxGeometry relative="1" as="geometry">
                        <mxPoint x="620" y="380" as="sourcePoint"/>
                        <mxPoint x="730" y="310" as="targetPoint"/>
                        <Array as="points">
                            <mxPoint x="720" y="310"/>
                        </Array>
                    </mxGeometry>
                </mxCell>
                <mxCell id="61" value="Info data kamar" style="edgeLabel;html=1;align=center;verticalAlign=middle;resizable=0;points=[];" parent="45" vertex="1" connectable="0">
                    <mxGeometry x="-0.5833" relative="1" as="geometry">
                        <mxPoint x="2" as="offset"/>
                    </mxGeometry>
                </mxCell>
                <mxCell id="46" style="html=1;jumpStyle=arc;rounded=0;curved=0;entryX=0.637;entryY=0.019;entryDx=0;entryDy=0;entryPerimeter=0;" parent="1" target="2" edge="1">
                    <mxGeometry relative="1" as="geometry">
                        <mxPoint x="710" y="160" as="sourcePoint"/>
                        <mxPoint x="460.88" y="219.16000000000008" as="targetPoint"/>
                        <Array as="points">
                            <mxPoint x="710" y="135"/>
                            <mxPoint x="460" y="135"/>
                        </Array>
                    </mxGeometry>
                </mxCell>
                <mxCell id="60" value="Data kamar" style="edgeLabel;html=1;align=center;verticalAlign=middle;resizable=0;points=[];" parent="46" vertex="1" connectable="0">
                    <mxGeometry x="0.115" relative="1" as="geometry">
                        <mxPoint x="36" as="offset"/>
                    </mxGeometry>
                </mxCell>
                <mxCell id="47" style="html=1;jumpStyle=arc;rounded=0;curved=0;exitX=0.977;exitY=0.345;exitDx=0;exitDy=0;exitPerimeter=0;entryX=0.201;entryY=1.015;entryDx=0;entryDy=0;entryPerimeter=0;" parent="1" source="2" target="4" edge="1">
                    <mxGeometry relative="1" as="geometry">
                        <mxPoint x="548.76" y="297.70000000000005" as="sourcePoint"/>
                        <mxPoint x="720" y="260" as="targetPoint"/>
                        <Array as="points">
                            <mxPoint x="710" y="300"/>
                        </Array>
                    </mxGeometry>
                </mxCell>
                <mxCell id="59" value="Info data hotel (miliknya)" style="edgeLabel;html=1;align=center;verticalAlign=middle;resizable=0;points=[];" parent="47" vertex="1" connectable="0">
                    <mxGeometry x="-0.2422" y="2" relative="1" as="geometry">
                        <mxPoint x="-11" as="offset"/>
                    </mxGeometry>
                </mxCell>
                <mxCell id="48" style="html=1;jumpStyle=arc;rounded=0;curved=0;exitX=0.921;exitY=0.231;exitDx=0;exitDy=0;exitPerimeter=0;entryX=0;entryY=1;entryDx=0;entryDy=0;" parent="1" source="2" target="4" edge="1">
                    <mxGeometry relative="1" as="geometry">
                        <mxPoint x="640" y="350" as="sourcePoint"/>
                        <mxPoint x="730" y="290" as="targetPoint"/>
                        <Array as="points">
                            <mxPoint x="690" y="270"/>
                        </Array>
                    </mxGeometry>
                </mxCell>
                <mxCell id="51" value="Konfirmasi pendaftaran" style="edgeLabel;html=1;align=center;verticalAlign=middle;resizable=0;points=[];" parent="48" vertex="1" connectable="0">
                    <mxGeometry x="0.1668" relative="1" as="geometry">
                        <mxPoint x="-30" as="offset"/>
                    </mxGeometry>
                </mxCell>
                <mxCell id="49" style="html=1;jumpStyle=arc;rounded=0;curved=0;entryX=0.767;entryY=0.07;entryDx=0;entryDy=0;entryPerimeter=0;exitX=0;exitY=0.25;exitDx=0;exitDy=0;" parent="1" source="4" target="2" edge="1">
                    <mxGeometry relative="1" as="geometry">
                        <mxPoint x="555" y="320" as="sourcePoint"/>
                        <mxPoint x="655" y="240" as="targetPoint"/>
                        <Array as="points">
                            <mxPoint x="494" y="173"/>
                        </Array>
                    </mxGeometry>
                </mxCell>
                <mxCell id="50" value="Data daftar" style="edgeLabel;html=1;align=center;verticalAlign=middle;resizable=0;points=[];" parent="49" vertex="1" connectable="0">
                    <mxGeometry x="-0.1705" y="-1" relative="1" as="geometry">
                        <mxPoint x="-14" as="offset"/>
                    </mxGeometry>
                </mxCell>
                <mxCell id="53" style="html=1;jumpStyle=arc;rounded=0;curved=0;exitX=0;exitY=0;exitDx=0;exitDy=0;entryX=0.71;entryY=0.043;entryDx=0;entryDy=0;entryPerimeter=0;" parent="1" source="4" target="2" edge="1">
                    <mxGeometry relative="1" as="geometry">
                        <mxPoint x="455" y="140" as="sourcePoint"/>
                        <mxPoint x="555" y="60" as="targetPoint"/>
                        <Array as="points">
                            <mxPoint x="480" y="160"/>
                        </Array>
                    </mxGeometry>
                </mxCell>
                <mxCell id="54" value="Data user (profile)" style="edgeLabel;html=1;align=center;verticalAlign=middle;resizable=0;points=[];" parent="53" vertex="1" connectable="0">
                    <mxGeometry x="-0.0847" relative="1" as="geometry">
                        <mxPoint x="23" as="offset"/>
                    </mxGeometry>
                </mxCell>
                <mxCell id="55" style="html=1;jumpStyle=arc;rounded=0;curved=0;entryX=0.674;entryY=0.031;entryDx=0;entryDy=0;entryPerimeter=0;exitX=0.101;exitY=-0.013;exitDx=0;exitDy=0;exitPerimeter=0;" parent="1" source="4" target="2" edge="1">
                    <mxGeometry relative="1" as="geometry">
                        <mxPoint x="710" y="148" as="sourcePoint"/>
                        <mxPoint x="468.1600000000001" y="224.76000000000022" as="targetPoint"/>
                        <Array as="points">
                            <mxPoint x="700" y="150"/>
                            <mxPoint x="470" y="150"/>
                        </Array>
                    </mxGeometry>
                </mxCell>
                <mxCell id="58" value="Data hotel (miliknya)" style="edgeLabel;html=1;align=center;verticalAlign=middle;resizable=0;points=[];" parent="55" vertex="1" connectable="0">
                    <mxGeometry x="-0.0538" y="-3" relative="1" as="geometry">
                        <mxPoint x="31" as="offset"/>
                    </mxGeometry>
                </mxCell>
                <mxCell id="56" style="html=1;jumpStyle=arc;rounded=0;curved=0;entryX=0.103;entryY=1.002;entryDx=0;entryDy=0;entryPerimeter=0;exitX=0.954;exitY=0.289;exitDx=0;exitDy=0;exitPerimeter=0;" parent="1" source="2" target="4" edge="1">
                    <mxGeometry relative="1" as="geometry">
                        <mxPoint x="545.64" y="285.0799999999999" as="sourcePoint"/>
                        <mxPoint x="698.3999999999999" y="207.39999999999986" as="targetPoint"/>
                        <Array as="points">
                            <mxPoint x="700" y="285"/>
                        </Array>
                    </mxGeometry>
                </mxCell>
                <mxCell id="57" value="Info data user (profile)" style="edgeLabel;html=1;align=center;verticalAlign=middle;resizable=0;points=[];" parent="56" vertex="1" connectable="0">
                    <mxGeometry x="-0.691" y="2" relative="1" as="geometry">
                        <mxPoint x="48" as="offset"/>
                    </mxGeometry>
                </mxCell>
                <mxCell id="68" style="html=1;jumpStyle=arc;rounded=0;curved=0;entryX=0.795;entryY=1.004;entryDx=0;entryDy=0;entryPerimeter=0;exitX=0.987;exitY=0.615;exitDx=0;exitDy=0;exitPerimeter=0;" parent="1" target="4" edge="1">
                    <mxGeometry relative="1" as="geometry">
                        <mxPoint x="550.62" y="373.89999999999986" as="sourcePoint"/>
                        <mxPoint x="768.1" y="216.74999999999977" as="targetPoint"/>
                        <Array as="points">
                            <mxPoint x="770" y="374"/>
                        </Array>
                    </mxGeometry>
                </mxCell>
                <mxCell id="73" value="Info data kebijakan" style="edgeLabel;html=1;align=center;verticalAlign=middle;resizable=0;points=[];" parent="68" vertex="1" connectable="0">
                    <mxGeometry x="-0.3696" relative="1" as="geometry">
                        <mxPoint x="-51" as="offset"/>
                    </mxGeometry>
                </mxCell>
                <mxCell id="69" style="html=1;jumpStyle=arc;rounded=0;curved=0;entryX=0.697;entryY=1.005;entryDx=0;entryDy=0;entryPerimeter=0;" parent="1" target="4" edge="1">
                    <mxGeometry relative="1" as="geometry">
                        <mxPoint x="553.5547820060484" y="361" as="sourcePoint"/>
                        <mxPoint x="759.7" y="211.39999999999986" as="targetPoint"/>
                        <Array as="points">
                            <mxPoint x="760" y="361"/>
                        </Array>
                    </mxGeometry>
                </mxCell>
                <mxCell id="72" value="Info data transaksi" style="edgeLabel;html=1;align=center;verticalAlign=middle;resizable=0;points=[];" parent="69" vertex="1" connectable="0">
                    <mxGeometry x="-0.0992" relative="1" as="geometry">
                        <mxPoint x="-95" as="offset"/>
                    </mxGeometry>
                </mxCell>
                <mxCell id="70" style="html=1;jumpStyle=arc;rounded=0;curved=0;entryX=0.6;entryY=1;entryDx=0;entryDy=0;entryPerimeter=0;" parent="1" target="4" edge="1">
                    <mxGeometry relative="1" as="geometry">
                        <mxPoint x="555" y="349" as="sourcePoint"/>
                        <mxPoint x="760.78" y="349" as="targetPoint"/>
                        <Array as="points">
                            <mxPoint x="750" y="350"/>
                        </Array>
                    </mxGeometry>
                </mxCell>
                <mxCell id="71" value="Info data reservasi" style="edgeLabel;html=1;align=center;verticalAlign=middle;resizable=0;points=[];" parent="70" vertex="1" connectable="0">
                    <mxGeometry x="-0.578" relative="1" as="geometry">
                        <mxPoint x="-6" as="offset"/>
                    </mxGeometry>
                </mxCell>
                <mxCell id="74" style="html=1;jumpStyle=arc;rounded=0;curved=0;entryX=0.894;entryY=1.005;entryDx=0;entryDy=0;entryPerimeter=0;" parent="1" target="4" edge="1">
                    <mxGeometry relative="1" as="geometry">
                        <mxPoint x="547" y="385" as="sourcePoint"/>
                        <mxPoint x="780" y="310" as="targetPoint"/>
                        <Array as="points">
                            <mxPoint x="780" y="385"/>
                        </Array>
                    </mxGeometry>
                </mxCell>
                <mxCell id="75" value="Info data fasilitas" style="edgeLabel;html=1;align=center;verticalAlign=middle;resizable=0;points=[];" parent="74" vertex="1" connectable="0">
                    <mxGeometry x="-0.3696" relative="1" as="geometry">
                        <mxPoint x="-60" as="offset"/>
                    </mxGeometry>
                </mxCell>
                <mxCell id="76" style="html=1;jumpStyle=arc;rounded=0;curved=0;exitX=0.951;exitY=0.716;exitDx=0;exitDy=0;exitPerimeter=0;entryX=1;entryY=1;entryDx=0;entryDy=0;" parent="1" target="4" edge="1">
                    <mxGeometry relative="1" as="geometry">
                        <mxPoint x="542.26" y="395.15999999999985" as="sourcePoint"/>
                        <mxPoint x="810" y="395" as="targetPoint"/>
                        <Array as="points">
                            <mxPoint x="790" y="395"/>
                        </Array>
                    </mxGeometry>
                </mxCell>
                <mxCell id="77" value="Info data tempat tidur" style="edgeLabel;html=1;align=center;verticalAlign=middle;resizable=0;points=[];" parent="76" vertex="1" connectable="0">
                    <mxGeometry x="-0.3696" relative="1" as="geometry">
                        <mxPoint x="-52" as="offset"/>
                    </mxGeometry>
                </mxCell>
                <mxCell id="78" style="html=1;jumpStyle=arc;rounded=0;curved=0;exitX=0.93;exitY=0.758;exitDx=0;exitDy=0;exitPerimeter=0;entryX=1;entryY=0.75;entryDx=0;entryDy=0;" parent="1" source="2" edge="1">
                    <mxGeometry relative="1" as="geometry">
                        <mxPoint x="540.4399999999999" y="407.0600000000002" as="sourcePoint"/>
                        <mxPoint x="790" y="204.5" as="targetPoint"/>
                        <Array as="points">
                            <mxPoint x="800" y="407"/>
                            <mxPoint x="800" y="205"/>
                        </Array>
                    </mxGeometry>
                </mxCell>
                <mxCell id="79" value="Info data kode promo" style="edgeLabel;html=1;align=center;verticalAlign=middle;resizable=0;points=[];" parent="78" vertex="1" connectable="0">
                    <mxGeometry x="-0.3696" relative="1" as="geometry">
                        <mxPoint x="-60" as="offset"/>
                    </mxGeometry>
                </mxCell>
                <mxCell id="80" style="html=1;jumpStyle=arc;rounded=0;curved=0;entryX=0.52;entryY=-0.001;entryDx=0;entryDy=0;entryPerimeter=0;" parent="1" target="2" edge="1">
                    <mxGeometry relative="1" as="geometry">
                        <mxPoint x="730" y="100" as="sourcePoint"/>
                        <mxPoint x="770" y="100" as="targetPoint"/>
                        <Array as="points">
                            <mxPoint x="730" y="160"/>
                            <mxPoint x="730" y="100"/>
                            <mxPoint x="430" y="100"/>
                        </Array>
                    </mxGeometry>
                </mxCell>
                <mxCell id="81" value="Data status reservasi" style="edgeLabel;html=1;align=center;verticalAlign=middle;resizable=0;points=[];" parent="80" vertex="1" connectable="0">
                    <mxGeometry x="-0.3696" relative="1" as="geometry">
                        <mxPoint x="-86" as="offset"/>
                    </mxGeometry>
                </mxCell>
                <mxCell id="82" style="html=1;jumpStyle=arc;rounded=0;curved=0;exitX=1;exitY=0.5;exitDx=0;exitDy=0;entryX=0.5;entryY=1;entryDx=0;entryDy=0;" parent="1" source="6" target="2" edge="1">
                    <mxGeometry relative="1" as="geometry">
                        <mxPoint x="200" y="550" as="sourcePoint"/>
                        <mxPoint x="300" y="470" as="targetPoint"/>
                        <Array as="points">
                            <mxPoint x="425" y="495"/>
                        </Array>
                    </mxGeometry>
                </mxCell>
                <mxCell id="108" value="Status/ konfirmasi pembayaran" style="edgeLabel;html=1;align=center;verticalAlign=middle;resizable=0;points=[];" parent="82" vertex="1" connectable="0">
                    <mxGeometry x="-0.3846" y="1" relative="1" as="geometry">
                        <mxPoint x="22" as="offset"/>
                    </mxGeometry>
                </mxCell>
                <mxCell id="91" style="html=1;jumpStyle=arc;rounded=0;curved=0;exitX=0.903;exitY=0.797;exitDx=0;exitDy=0;exitPerimeter=0;entryX=0.5;entryY=0;entryDx=0;entryDy=0;" parent="1" source="2" target="5" edge="1">
                    <mxGeometry relative="1" as="geometry">
                        <mxPoint x="600" y="680" as="sourcePoint"/>
                        <mxPoint x="700" y="600" as="targetPoint"/>
                        <Array as="points">
                            <mxPoint x="740" y="417"/>
                        </Array>
                    </mxGeometry>
                </mxCell>
                <mxCell id="103" value="Info data kamar hotel" style="edgeLabel;html=1;align=center;verticalAlign=middle;resizable=0;points=[];" parent="91" vertex="1" connectable="0">
                    <mxGeometry x="-0.4699" relative="1" as="geometry">
                        <mxPoint x="26" as="offset"/>
                    </mxGeometry>
                </mxCell>
                <mxCell id="97" style="html=1;jumpStyle=arc;rounded=0;curved=0;entryX=0.403;entryY=-0.008;entryDx=0;entryDy=0;entryPerimeter=0;exitX=0.87;exitY=0.837;exitDx=0;exitDy=0;exitPerimeter=0;" parent="1" source="2" target="5" edge="1">
                    <mxGeometry relative="1" as="geometry">
                        <mxPoint x="516.9238815542515" y="428.92388155425147" as="sourcePoint"/>
                        <mxPoint x="729.8" y="465.04999999999995" as="targetPoint"/>
                        <Array as="points">
                            <mxPoint x="730" y="427"/>
                        </Array>
                    </mxGeometry>
                </mxCell>
                <mxCell id="104" value="Info data reservasi" style="edgeLabel;html=1;align=center;verticalAlign=middle;resizable=0;points=[];" parent="97" vertex="1" connectable="0">
                    <mxGeometry x="-0.1694" y="-1" relative="1" as="geometry">
                        <mxPoint x="-6" as="offset"/>
                    </mxGeometry>
                </mxCell>
                <mxCell id="99" style="html=1;jumpStyle=arc;rounded=0;curved=0;exitX=0;exitY=0.5;exitDx=0;exitDy=0;entryX=0.766;entryY=0.928;entryDx=0;entryDy=0;entryPerimeter=0;" parent="1" source="5" target="2" edge="1">
                    <mxGeometry relative="1" as="geometry">
                        <mxPoint x="720" y="530" as="sourcePoint"/>
                        <mxPoint x="460" y="500" as="targetPoint"/>
                        <Array as="points">
                            <mxPoint x="494" y="495"/>
                        </Array>
                    </mxGeometry>
                </mxCell>
                <mxCell id="105" value="Data reservasi" style="edgeLabel;html=1;align=center;verticalAlign=middle;resizable=0;points=[];" parent="99" vertex="1" connectable="0">
                    <mxGeometry x="0.3128" relative="1" as="geometry">
                        <mxPoint x="54" as="offset"/>
                    </mxGeometry>
                </mxCell>
                <mxCell id="100" style="html=1;jumpStyle=arc;rounded=0;curved=0;exitX=0;exitY=0.25;exitDx=0;exitDy=0;entryX=0.807;entryY=0.905;entryDx=0;entryDy=0;entryPerimeter=0;" parent="1" source="5" target="2" edge="1">
                    <mxGeometry relative="1" as="geometry">
                        <mxPoint x="684" y="482.5" as="sourcePoint"/>
                        <mxPoint x="504" y="450" as="targetPoint"/>
                        <Array as="points">
                            <mxPoint x="504" y="483"/>
                        </Array>
                    </mxGeometry>
                </mxCell>
                <mxCell id="106" value="Data &lt;i&gt;check in dan check out&lt;/i&gt;" style="edgeLabel;html=1;align=center;verticalAlign=middle;resizable=0;points=[];" parent="100" vertex="1" connectable="0">
                    <mxGeometry x="-0.0315" y="-1" relative="1" as="geometry">
                        <mxPoint x="18" as="offset"/>
                    </mxGeometry>
                </mxCell>
                <mxCell id="109" style="html=1;jumpStyle=arc;rounded=0;curved=0;entryX=0.478;entryY=0.001;entryDx=0;entryDy=0;entryPerimeter=0;" parent="1" edge="1">
                    <mxGeometry relative="1" as="geometry">
                        <mxPoint x="740" y="87" as="sourcePoint"/>
                        <mxPoint x="419.28" y="209.26" as="targetPoint"/>
                        <Array as="points">
                            <mxPoint x="740" y="159"/>
                            <mxPoint x="740" y="87"/>
                            <mxPoint x="420" y="89"/>
                        </Array>
                    </mxGeometry>
                </mxCell>
                <mxCell id="110" value="Data kode promo" style="edgeLabel;html=1;align=center;verticalAlign=middle;resizable=0;points=[];" parent="109" vertex="1" connectable="0">
                    <mxGeometry x="-0.3696" relative="1" as="geometry">
                        <mxPoint x="-113" as="offset"/>
                    </mxGeometry>
                </mxCell>
                <mxCell id="111" style="html=1;jumpStyle=arc;rounded=0;curved=0;exitX=0.004;exitY=0.783;exitDx=0;exitDy=0;entryX=0.766;entryY=0.928;entryDx=0;entryDy=0;entryPerimeter=0;exitPerimeter=0;" parent="1" edge="1">
                    <mxGeometry relative="1" as="geometry">
                        <mxPoint x="690.4" y="505.15" as="sourcePoint"/>
                        <mxPoint x="480" y="457" as="targetPoint"/>
                        <Array as="points">
                            <mxPoint x="480" y="506"/>
                        </Array>
                    </mxGeometry>
                </mxCell>
                <mxCell id="112" value="Data kode promo" style="edgeLabel;html=1;align=center;verticalAlign=middle;resizable=0;points=[];" parent="111" vertex="1" connectable="0">
                    <mxGeometry x="0.3128" relative="1" as="geometry">
                        <mxPoint x="74" as="offset"/>
                    </mxGeometry>
                </mxCell>
                <mxCell id="113" style="html=1;jumpStyle=arc;rounded=0;curved=0;entryX=0.298;entryY=-0.013;entryDx=0;entryDy=0;entryPerimeter=0;exitX=0.831;exitY=0.877;exitDx=0;exitDy=0;exitPerimeter=0;" parent="1" source="2" edge="1">
                    <mxGeometry relative="1" as="geometry">
                        <mxPoint x="514.18" y="437.20000000000005" as="sourcePoint"/>
                        <mxPoint x="719.8000000000001" y="470.35" as="targetPoint"/>
                        <Array as="points">
                            <mxPoint x="720" y="437"/>
                        </Array>
                    </mxGeometry>
                </mxCell>
                <mxCell id="114" value="Konfirmasi kode promo" style="edgeLabel;html=1;align=center;verticalAlign=middle;resizable=0;points=[];" parent="113" vertex="1" connectable="0">
                    <mxGeometry x="-0.1694" y="-1" relative="1" as="geometry">
                        <mxPoint x="18" as="offset"/>
                    </mxGeometry>
                </mxCell>
            </root>
        </mxGraphModel>
    </diagram>
</mxfile>